Coordinates
version=1
nRows=17
nColumns=36
inDegrees=yes

Units are S.I. units (second, meters, Newtons, ...)
If the header above contains a line with 'inDegrees', this indicates whether rotational values are in degrees (yes) or radians (no).

endheader
time	pelvis_tilt	pelvis_list	pelvis_rotation	pelvis_tx	pelvis_ty	pelvis_tz	hip_flexion_r	hip_adduction_r	hip_rotation_r	knee_angle_r	knee_angle_r_beta	ankle_angle_r	subtalar_angle_r	mtp_angle_r	hip_flexion_l	hip_adduction_l	hip_rotation_l	knee_angle_l	knee_angle_l_beta	ankle_angle_l	subtalar_angle_l	mtp_angle_l	lumbar_extension	lumbar_bending	lumbar_rotation	arm_flex_r	arm_add_r	arm_rot_r	elbow_flex_r	pro_sup_r	arm_flex_l	arm_add_l	arm_rot_l	elbow_flex_l	pro_sup_l
      0.66000000	      0.60994968	      5.49156081	     -6.11870232	      0.72452518	      0.90681355	     -0.23790831	    -20.61305094	     -3.84648124	     -3.42197907	     22.04361380	      0.38473364	      1.89471605	     -0.98377344	     -7.15723100	     22.13262354	      8.25724398	      0.54172660	     13.78098288	      0.24052353	     -5.92119417	     -6.96660695	     -7.15723100	     -4.46230759	     -5.61091761	      6.43398689	      1.73372617	     -6.92016901	     -8.67273240	     48.80111807	    100.44627450	    -19.06491805	     -0.83787735	    -31.40677646	     24.75015539	     96.94688109
      0.67000000	      0.59934295	      6.10205430	     -5.60658969	      0.73858761	      0.90881714	     -0.23845994	    -19.31105854	     -4.45213104	     -3.43654750	     25.45297356	      0.44423819	     -1.76292491	     -3.58288441	     -7.17262098	     21.64339055	      9.30452916	      1.62695731	     14.62986982	      0.25533940	     -5.78285420	     -8.54595743	     -7.17262098	     -4.32354108	     -6.36125003	      5.82057369	      0.92707932	     -6.27209400	     -9.19375109	     47.46952618	    100.49476461	    -18.51949488	     -1.02363750	    -31.70416578	     25.22082736	     96.97352373
      0.68000000	      0.71575231	      6.74292941	     -5.20304532	      0.75255058	      0.91095830	     -0.23906872	    -17.82383926	     -5.30162660	     -3.76774753	     29.35316426	      0.51230936	     -4.68925368	     -4.43354474	     -7.17765627	     20.85090374	     10.34264600	      2.36647645	     15.17124483	      0.26478817	     -5.01134917	     -9.06128848	     -7.17765627	     -4.34880265	     -7.12736912	      5.31263777	      0.01084135	     -5.81084271	     -9.38953866	     46.42066839	    100.45861419	    -17.90821631	     -1.23938609	    -31.71556207	     25.67283832	     97.03070451
      0.69000000	      0.70237831	      7.19178476	     -4.87258016	      0.76621186	      0.91298652	     -0.23965250	    -15.98725151	     -5.95932265	     -3.79145525	     33.42520090	      0.58337981	     -7.97758285	     -5.57518503	     -7.18230592	     20.03098126	     11.12553560	      2.97790947	     15.38971307	      0.26860116	     -4.34254028	     -9.54975748	     -7.18230592	     -4.25116943	     -7.63037261	      4.85100205	     -0.88367677	     -5.41503645	     -9.55616716	     45.28278423	    100.41182034	    -17.30149987	     -1.36086486	    -31.69688069	     26.27895238	     97.11506127
      0.70000000	      0.45744304	      7.47653392	     -4.60958753	      0.77944149	      0.91471366	     -0.24008843	    -13.70212574	     -6.38108316	     -3.50119404	     37.53728310	      0.65514918	    -11.91242246	     -7.69801369	     -7.18979893	     19.37375592	     11.66246136	      3.51625187	     15.42210592	      0.26916653	     -3.92644602	     -9.99813999	     -7.18979893	     -3.90590659	     -7.93669617	      4.45068798	     -1.69825008	     -5.09124160	     -9.59426824	     43.97199023	    100.38287766	    -16.76340277	     -1.41354631	    -31.70003392	     27.12843942	     97.25544288
      0.71000000	      0.31458890	      7.63752391	     -4.50027416	      0.79255642	      0.91645777	     -0.24030768	    -11.49130001	     -6.66860309	     -2.97677208	     41.42658633	      0.72303033	    -15.82906336	     -9.87567879	     -7.20260645	     18.49109265	     11.99505138	      3.68582893	     15.21882677	      0.26561864	     -3.36754802	    -10.24472350	     -7.20260645	     -3.64651921	     -8.09799385	      4.00386857	     -2.42887308	     -4.92292272	     -9.20701588	     42.70913324	    100.40619432	    -16.26904463	     -1.43295543	    -31.73988477	     27.98526671	     97.46153610
      0.72000000	      0.07533048	      7.84094278	     -4.50833803	      0.80532012	      0.91789037	     -0.24045368	     -8.99003134	     -7.08335188	     -2.46753843	     45.40375359	      0.79244499	    -18.33464851	    -10.90805970	     -7.21237035	     17.66252047	     12.30155084	      3.70769705	     14.84535685	      0.25910036	     -2.71699173	    -10.05615085	     -7.21237035	     -3.26880726	     -8.28471253	      3.75923808	     -3.22907198	     -4.87522314	     -8.71099414	     41.52511983	    100.39847223	    -15.73027470	     -1.48760855	    -31.52044825	     28.88653899	     97.67098330
      0.73000000	     -0.04988493	      8.01223477	     -4.59653255	      0.81777050	      0.91939124	     -0.24044307	     -6.59557017	     -7.46929281	     -1.93211136	     49.10193956	      0.85699051	    -19.73865089	    -11.42903748	     -7.21696917	     16.61541772	     12.54356374	      3.61089512	     14.21517543	      0.24810162	     -1.97753363	     -9.85168521	     -7.21696917	     -3.11432177	     -8.42803147	      3.59123537	     -4.02020108	     -4.84794881	     -8.25806584	     40.55833646	    100.37914177	    -14.98932725	     -1.56281076	    -31.20569752	     29.70365995	     97.82214265
      0.74000000	     -0.34207047	      8.09147831	     -4.70092207	      0.82979550	      0.92058717	     -0.24023799	     -3.96455934	     -7.65514118	     -1.27418876	     52.61758613	      0.91835012	    -20.37359604	    -12.50682803	     -7.22369834	     15.85195222	     12.61905230	      3.35471254	     13.74929330	      0.23997044	     -1.28482242	     -9.39199353	     -7.22369834	     -2.78120218	     -8.46992899	      3.32321945	     -4.65691859	     -4.94686304	     -7.31941147	     39.39395750	    100.37694150	    -14.37825133	     -1.67958792	    -30.64402273	     30.73821598	     98.02753280
      0.75000000	     -0.55142661	      8.06841643	     -4.86333949	      0.84171560	      0.92181436	     -0.23981811	     -1.43121259	     -7.70868872	     -0.66648031	     55.83256084	      0.97446202	    -20.03343484	    -13.42115271	     -7.23675840	     15.01821721	     12.55351505	      2.95144273	     13.36732898	      0.23330390	     -0.33024541	     -8.58281446	     -7.23675840	     -2.49790517	     -8.41342038	      2.78453749	     -5.04465804	     -5.22479833	     -5.43847575	     37.98442938	    100.37887914	    -14.00500222	     -1.84518275	    -29.82244479	     31.76336061	     98.25490025
      0.76000000	     -0.57976436	      8.07754338	     -4.97374956	      0.85331945	      0.92326857	     -0.23937900	      0.83504720	     -7.79081648	     -0.18639260	     58.63462676	      1.02336729	    -18.83976931	    -14.42090788	     -7.24037709	     13.88187342	     12.59925849	      3.05948050	     12.71239394	      0.22187313	      0.35265284	     -8.29000695	     -7.24037709	     -2.55578266	     -8.40389738	      2.56274215	     -5.76728943	     -5.26001091	     -4.85910181	     37.22372542	    100.35424890	    -13.09576299	     -2.02488752	    -29.43581061	     32.59229318	     98.36517826
      0.77000000	     -0.81429276	      7.99607207	     -4.97124718	      0.86473707	      0.92440012	     -0.23889081	      3.30621495	     -7.70213654	      0.26062760	     61.15507273	      1.06735737	    -16.52651453	    -14.62249133	     -7.25316455	     13.14117413	     12.50022209	      2.92538525	     12.43430339	      0.21701953	      1.20325932	     -7.58398397	     -7.25316455	     -2.36114098	     -8.30584546	      1.86868484	     -6.12159317	     -5.53277897	     -2.80449920	     35.95153919	    100.34890753	    -12.59386011	     -2.38172953	    -28.31715868	     33.70442718	     98.52021153
      0.78000000	     -0.84036650	      7.83981276	     -4.92487044	      0.87599578	      0.92586260	     -0.23840092	      5.44022669	     -7.49073211	      0.61323525	     63.12669158	      1.10176861	    -14.77411069	    -15.86612278	     -7.25566772	     12.07317153	     12.39990406	      3.29822935	     11.97481421	      0.20899994	      1.75749393	     -7.38722427	     -7.25566772	     -2.48640830	     -8.10820187	      1.41221067	     -6.81697268	     -5.54134565	     -2.39704406	     35.38010101	    100.33357322	    -11.62348608	     -2.64338315	    -27.94804834	     34.49155176	     98.60762355
      0.79000000	     -1.10680817	      7.67030325	     -4.74344992	      0.88720242	      0.92693008	     -0.23802779	      7.79851272	     -7.29038530	      0.81007059	     64.79982637	      1.13097032	    -12.01776385	    -15.85636105	     -7.26723342	     11.37892800	     12.26596060	      3.53183137	     11.72853709	      0.20470159	      2.46516835	     -7.03491007	     -7.26723342	     -2.32607708	     -7.90955018	      0.59571286	     -7.28809523	     -5.75553516	     -0.74156033	     34.33183085	    100.38446247	    -11.07218474	     -3.11289720	    -26.61830380	     35.60501683	     98.71362133
      0.80000000	     -1.20468554	      7.40935975	     -4.55788777	      0.89832053	      0.92827124	     -0.23758946	      9.86029893	     -6.92163810	      1.01200214	     65.91053429	      1.15035584	    -10.22669991	    -16.99917039	     -7.27006009	     10.41918688	     12.06967979	      4.03856607	     11.33074130	      0.19775874	      2.98233586	     -6.93960826	     -7.27006009	     -2.40841803	     -7.60616647	     -0.00483000	     -8.02795549	     -5.74446624	     -0.45527259	     33.82969219	    100.38128488	    -10.10723516	     -3.43736041	    -26.21632850	     36.42455542	     98.79065167
      0.81000000	     -1.38672814	      7.15389774	     -4.32107002	      0.90937349	      0.92939908	     -0.23724133	     11.98345455	     -6.56726222	      1.19445715	     66.69343865	      1.16402009	     -8.28271583	    -17.61993343	     -7.27486147	      9.59249518	     11.88912216	      4.58052679	     11.00895771	      0.19214256	      3.52928618	     -6.94473179	     -7.27486147	     -2.40377406	     -7.30345442	     -0.75896915	     -8.71269388	     -5.75820771	     -0.08440093	     33.27716111	    100.41021865	     -9.35654509	     -3.86987002	    -25.35197304	     37.48920197	     98.90455337
      0.82000000	     -1.52289053	      6.83986012	     -4.12677552	      0.92037622	      0.93053189	     -0.23681677	     13.97668132	     -6.11013288	      1.44367986	     67.04849415	      1.17021698	     -6.44840649	    -18.19375926	     -7.27957931	      8.69735903	     11.62965252	      5.08364338	     10.61966307	      0.18534809	      3.98697326	     -7.00728049	     -7.27957931	     -2.45427212	     -6.92303183	     -1.42408051	     -9.43268753	     -5.76198720	      0.05055263	     32.79064593	    100.42599781	     -8.53850221	     -4.30093385	    -24.56945890	     38.51224293	     98.99908408
